PathFileType  4	(X/Y/Z) C:\Users\antoi\Documents\MyRepositories\mobilecap\ResultsAnalysis
DataRate	CameraRate	NumFrames	NumMarkers	Units	OrigDataRate	OrigDataStartFrame	OrigNumFrames
100.0	100.0	5	51	mm	100.0	162	1288
Frame#	Time	r_knee			r_shank_antsup			r_ankle			r_calc			r_5meta			r_toe			L_knee			L_shank_antsup			L_ankle			L_calc			L_5meta			L_toe			r_sh2			r_sh3			r_sh4			L_sh2			L_sh3			r_thigh1			r_thigh2			r_thigh3			r_thigh4			r_thigh5			L_thigh1			L_thigh2			L_thigh3			L_thigh4			r.ASIS			r.PSIS			L.ASIS			L.PSIS			C7			R_Shoulder			L_Shoulder			R_Sternum			L_Sternum			R_humerus			R_elbow_med			R_elbow_lat			R_forearm			R_wrist_radius			R_wrist_ulna			L_humerus			L_elbow_med			L_elbow_lat			L_forearm			L_wrist_radius			L_wrist_ulna			R_HJC			L_HJC			R_HJC_reg			L_HJC_reg			
		X1	Y1	Z1	X2	Y2	Z2	X3	Y3	Z3	X4	Y4	Z4	X5	Y5	Z5	X6	Y6	Z6	X7	Y7	Z7	X8	Y8	Z8	X9	Y9	Z9	X10	Y10	Z10	X11	Y11	Z11	X12	Y12	Z12	X13	Y13	Z13	X14	Y14	Z14	X15	Y15	Z15	X16	Y16	Z16	X17	Y17	Z17	X18	Y18	Z18	X19	Y19	Z19	X20	Y20	Z20	X21	Y21	Z21	X22	Y22	Z22	X23	Y23	Z23	X24	Y24	Z24	X25	Y25	Z25	X26	Y26	Z26	X27	Y27	Z27	X28	Y28	Z28	X29	Y29	Z29	X30	Y30	Z30	X31	Y31	Z31	X32	Y32	Z32	X33	Y33	Z33	X34	Y34	Z34	X35	Y35	Z35	X36	Y36	Z36	X37	Y37	Z37	X38	Y38	Z38	X39	Y39	Z39	X40	Y40	Z40	X41	Y41	Z41	X42	Y42	Z42	X43	Y43	Z43	X44	Y44	Z44	X45	Y45	Z45	X46	Y46	Z46	X47	Y47	Z47	X48	Y48	Z48	X49	Y49	Z49	X50	Y50	Z50	X51	Y51	Z51	

162	1.61000000	-172.33398	456.05136	-401.36185	-172.35305	384.39733	-371.84240	-271.26497	93.83433	-394.43188	-338.76913	56.08598	-432.94535	-170.88235	45.29660	-359.66935	-126.67895	66.25668	-413.00553	-165.34709	447.81086	-805.60162	-141.29580	375.19150	-817.47292	-266.30582	93.30860	-791.16856	-338.76272	58.60837	-743.35087	-177.93552	42.19266	-821.94289	-127.06875	64.81126	-767.95633	-204.30978	275.82141	-362.34567	-241.56641	402.67726	-393.54771	-281.40074	293.45687	-386.64654	-224.72258	407.63220	-826.53307	-256.30220	289.71056	-829.56739	-217.66788	752.35464	-449.62021	-172.40189	653.78356	-418.72038	-213.32313	621.12836	-376.03043	-310.05258	730.26008	-386.85097	-270.35486	620.02586	-380.88079	-217.48935	733.43416	-779.47708	-159.69455	609.06904	-799.60059	-325.61362	688.98333	-788.40043	-259.17217	564.83775	-806.79878	-235.87655	862.34083	-465.42088	-400.54991	923.33317	-549.37981	-220.07994	845.31529	-717.51913	-397.13122	915.63140	-657.27015	-208.42616	1337.60785	-596.00592	-152.00345	1281.92841	-440.18856	-132.64262	1281.59001	-757.25922	-97.10632	1246.52510	-575.99273	-94.77565	1243.57581	-616.63665	-234.41988	1074.48155	-339.17553	-294.57349	975.00219	-388.49689	-278.31196	1006.37896	-314.10512	-163.99274	990.53824	-329.51140	-56.95105	976.22319	-359.72787	-60.47323	932.45348	-352.51722	-138.09925	1150.19977	-813.25544	-229.41826	947.46156	-776.33019	-238.46255	964.67269	-846.09466	-127.16315	981.18166	-861.04870	-10.55477	993.35451	-845.12517	-2.40970	956.87178	-850.95223	-316.91944	805.52646	-492.36547	-301.74343	794.65888	-691.78596	-313.11992	799.64102	-499.17836	-307.84166	787.74940	-665.76023	
163	1.62000000	-174.81063	456.90360	-402.01131	-174.95245	385.48215	-372.30538	-271.31924	93.86078	-394.30006	-338.76796	56.07464	-432.92450	-170.82970	45.22715	-359.51875	-126.63939	66.12581	-412.98374	-167.69777	448.87761	-804.62268	-143.65763	376.49483	-816.24675	-266.33973	93.24015	-790.98141	-338.79722	58.53151	-743.37122	-177.93953	42.16696	-821.94668	-127.11974	64.78090	-767.97940	-205.80730	276.47523	-362.75503	-244.22051	403.07500	-394.00888	-283.41695	293.92248	-387.49750	-227.30184	408.28039	-825.45144	-257.93941	290.03208	-828.86114	-215.24583	754.23838	-449.44186	-171.61210	654.72074	-419.11487	-213.21618	622.85546	-376.28715	-308.02724	733.54290	-387.24357	-270.24188	622.62810	-381.39781	-215.09314	735.25925	-779.04033	-159.36531	609.83531	-798.90361	-323.74423	692.85371	-788.05574	-259.51157	567.43099	-806.04619	-232.52982	866.27282	-465.70414	-397.76767	926.31254	-549.39762	-216.98411	849.71626	-717.88138	-394.27058	918.79998	-657.24016	-210.15024	1342.82829	-596.07959	-153.51658	1287.64159	-440.05050	-134.35140	1287.73301	-757.51580	-98.21886	1252.65514	-576.21912	-95.91736	1249.64825	-616.86273	-237.50753	1080.01664	-340.72472	-297.68968	981.02396	-390.99283	-281.94214	1011.96597	-316.52176	-167.72970	994.40876	-330.83016	-60.63699	978.29857	-360.12208	-64.99427	934.48249	-353.17200	-140.14497	1156.53871	-813.66493	-231.73494	954.36241	-775.69512	-241.12781	971.41291	-846.26370	-129.53420	986.38932	-861.02496	-12.76032	996.98894	-844.89683	-5.11922	960.35124	-850.17311	-313.24525	808.96863	-492.64153	-298.24884	798.49738	-692.09695	-309.53666	803.06336	-499.59122	-304.13359	791.45647	-666.21081	
164	1.63000000	-177.37172	457.82021	-402.76164	-177.56910	386.63552	-372.70536	-271.36741	93.92812	-394.22848	-338.70437	56.18357	-432.84666	-170.78483	45.16992	-359.38394	-126.57125	65.94154	-412.99874	-170.04329	449.92464	-803.53817	-146.05400	377.76694	-815.10170	-266.38519	93.25051	-790.94067	-338.86584	58.46949	-743.39981	-177.94160	42.14226	-821.95181	-127.14418	64.75006	-767.93049	-207.47373	277.21081	-363.09563	-246.78599	403.42359	-394.48762	-285.34499	294.27880	-388.32876	-229.81854	409.04107	-824.35588	-259.87160	290.49079	-827.99440	-212.63819	756.07807	-449.49617	-170.84011	655.69268	-419.36715	-213.08244	624.43066	-376.65817	-306.02911	736.62710	-387.71867	-270.10269	625.15662	-381.92978	-212.57188	736.96192	-778.75685	-159.03356	610.58703	-798.15842	-321.87518	696.44270	-787.50741	-259.85779	569.90268	-805.14972	-229.22267	869.95301	-465.95819	-394.77442	929.07662	-549.62756	-213.92220	853.93450	-718.12228	-391.38775	921.76291	-657.28067	-212.00386	1347.76735	-596.19919	-155.08885	1293.18513	-439.93366	-136.16029	1293.77759	-757.81994	-99.36871	1258.57995	-576.38142	-97.14021	1255.59167	-617.09082	-240.32617	1085.28853	-342.04368	-300.72275	986.97981	-393.39699	-285.25274	1017.25076	-318.83608	-171.09515	997.89220	-332.08995	-64.09148	980.25143	-360.54917	-69.23988	936.41679	-353.85759	-142.04103	1162.76901	-814.11389	-233.98473	960.98334	-775.52969	-243.53390	977.84353	-846.46315	-131.61313	991.41434	-860.98478	-14.72366	1000.58767	-844.61212	-7.52623	963.79538	-849.43339	-309.60741	812.20231	-492.95219	-294.70416	802.12056	-692.43486	-305.85904	806.37873	-499.82888	-300.61702	795.05917	-666.43231	
165	1.64000000	-179.88631	458.88828	-403.40806	-180.17317	387.70522	-373.20769	-271.45220	94.06648	-394.26466	-338.63328	56.35546	-432.74151	-170.73798	45.11504	-359.29231	-126.49659	65.76511	-413.06657	-172.32659	450.90413	-802.18947	-148.45567	379.03449	-814.06729	-266.44675	93.30278	-790.94966	-338.86768	58.48056	-743.43406	-177.93667	42.12753	-821.95615	-127.12450	64.71954	-767.83108	-209.28850	278.08445	-363.35258	-249.35324	403.74045	-395.09285	-287.08959	294.46958	-388.80344	-232.42838	409.75256	-823.05969	-261.75924	291.12214	-827.13323	-210.00252	757.74289	-449.59086	-170.13475	656.66269	-419.54784	-212.91833	625.67328	-377.46325	-303.96200	739.65712	-388.05834	-269.91103	627.60501	-382.41806	-210.06233	738.55191	-778.47849	-158.71300	611.29916	-797.34972	-320.05364	699.75189	-786.85029	-260.22543	572.28264	-804.27675	-225.92295	873.48936	-466.20357	-391.89208	931.82850	-549.65076	-210.78660	857.90691	-718.35778	-388.66210	924.57052	-657.35007	-214.04382	1352.52299	-596.26208	-156.69388	1298.36263	-439.91789	-138.07401	1299.73794	-758.05655	-100.61956	1264.29888	-576.44574	-98.50982	1261.69284	-616.95384	-242.91584	1090.38656	-343.27352	-303.72980	992.80552	-395.48613	-288.36885	1022.46052	-320.56889	-174.14142	1001.16839	-333.26864	-67.31214	982.09969	-361.00429	-73.18087	938.32725	-354.67172	-143.73437	1168.92938	-814.65935	-236.20893	967.39933	-775.87931	-245.62054	984.04704	-846.86146	-133.34752	996.27734	-860.99582	-16.40813	1004.04554	-844.27413	-9.60630	967.09876	-848.72814	-306.02258	815.33757	-493.18755	-291.25196	805.57089	-692.69559	-302.20915	809.70412	-499.95711	-297.21258	798.47723	-666.54254	
166	1.65000000	-182.19236	459.82597	-404.03406	-182.77218	388.74899	-373.80996	-271.55351	94.26635	-394.33530	-338.59471	56.47403	-432.70230	-170.66540	45.08094	-359.22805	-126.41076	65.62352	-413.13556	-174.51154	451.90336	-800.84104	-150.87750	380.32836	-813.05028	-266.49363	93.35664	-790.87295	-338.78740	58.56769	-743.47261	-177.92550	42.12201	-821.95506	-127.10660	64.67578	-767.77404	-211.10764	278.94602	-363.73808	-252.01934	404.16290	-395.88081	-288.68558	294.50653	-389.01226	-235.20060	410.45967	-821.66530	-263.39569	291.78819	-826.35895	-207.44627	759.30393	-449.49444	-169.43353	657.64706	-419.62947	-212.72829	626.79408	-378.31821	-301.82641	742.66561	-388.10410	-269.65280	629.93736	-382.84583	-207.59246	740.06118	-778.18096	-158.44977	611.89861	-796.47296	-318.23807	702.99663	-786.41866	-260.56378	574.61372	-803.64780	-222.62189	877.01705	-466.38606	-389.47568	934.70254	-549.17568	-207.74698	861.71024	-718.74016	-386.06813	927.17655	-657.28340	-216.10876	1357.04646	-596.18478	-158.29240	1303.27045	-439.95834	-140.12754	1305.46316	-758.19505	-102.01141	1269.87670	-576.52727	-99.99425	1267.84234	-616.59236	-245.28698	1095.29221	-344.35564	-306.38370	998.27574	-397.19593	-291.26775	1027.55591	-321.82542	-176.97962	1004.48327	-334.23188	-70.26696	983.94187	-361.46289	-76.79376	940.20562	-355.67148	-145.27831	1174.86901	-815.13429	-238.32902	973.59424	-776.31700	-247.37115	990.06516	-847.52909	-134.80908	1000.93329	-861.09789	-17.82633	1007.29967	-843.89027	-11.43858	970.22862	-847.87194	-302.48745	818.46737	-493.24150	-288.04703	808.91240	-692.78379	-298.96606	813.17036	-500.15315	-293.71628	801.57131	-666.81213	
